<svg xmlns="http://www.w3.org/2000/svg" viewBox="0 0 102.654 68.522"><title>Manage_Account_icons</title><g style="isolation:isolate"><path d="M92.393,64.191a4.773,4.773,0,0,1-4.775,4.556H5.008A4.737,4.737,0,0,1,.5,63.966V15.3a4.539,4.539,0,0,1,4.511-4.555h82.61A4.869,4.869,0,0,1,92.5,15.3V63.747" style="fill:#d1c7be"/><polygon points="22.497 56.747 8.497 56.747 8.497 51.747 22.497 51.747 22.497 56.747 22.497 56.747" style="fill:#fff"/><polygon points="43.497 56.747 28.497 56.747 28.497 51.747 43.497 51.747 43.497 56.747 43.497 56.747" style="fill:#fff"/><polygon points="64.497 56.747 49.497 56.747 49.497 51.747 64.497 51.747 64.497 56.747 64.497 56.747" style="fill:#fff"/><polygon points="84.497 56.747 70.497 56.747 70.497 51.747 84.497 51.747 84.497 56.747 84.497 56.747" style="fill:#fff"/><path d="M22.5,45.858c0,1.235-.866,2.889-2.1,2.889H10.3C9.071,48.747,8.5,47.238,8.5,46V39.467a1.516,1.516,0,0,1,1.807-1.72H20.4c1.235,0,2.1.486,2.1,1.72v6.391Z" style="fill:#fff"/><path d="M102.657,18.807A19.094,19.094,0,0,1,92.5,35.677v-0.09a21.248,21.248,0,0,1-8.42,1.91A18.778,18.778,0,0,1,65.3,18.8a20.547,20.547,0,0,1,1.72-8.05A19.222,19.222,0,0,1,83.9.117,18.753,18.753,0,0,1,102.657,18.807Z" style="fill:#cd0e2b;mix-blend-mode:multiply"/><path d="M92.5,35.677v0.07l-0.1-.02C92.427,35.707,92.467,35.7,92.5,35.677Z" style="fill:#cd0e2b;mix-blend-mode:multiply"/><polygon points="80.815 29.88 72.448 21.513 75.593 18.368 80.815 23.59 93.801 10.603 96.947 13.749 80.815 29.88 80.815 29.88" style="fill:#fff"/></g></svg>