<svg xmlns="http://www.w3.org/2000/svg" viewBox="0 0 500 499" height="500" width="500"><defs><style>.a{isolation:isolate;}.b{fill:#d1c8bf;}.c{fill:#fff;}.d{fill:#dc1431;mix-blend-mode:multiply;}</style></defs><title>SVG Icon Masters-v3</title><g class="a"><path class="b" d="M420.344,168.521L389.583,73.21,128.2,157.543l30.752,95.316a13.573,13.573,0,0,0,17.074,8.741l235.571-76.005A13.573,13.573,0,0,0,420.344,168.521Z"/><path class="b" d="M375.562,29.757A13.554,13.554,0,0,0,358.5,21.016L122.921,97.025a13.573,13.573,0,0,0-8.75,17.074l4.2,12.989L379.756,42.75Z"/><rect class="c" x="116.649" y="84.146" width="274.655" height="32.003" transform="translate(-18.482 82.826) rotate(-17.883)"/><path class="d" d="M353.588,272.309a13.569,13.569,0,0,1-13.566,13.567H92.494a13.567,13.567,0,0,1-13.571-13.567v-145.8a13.566,13.566,0,0,1,13.571-13.562H340.022a13.568,13.568,0,0,1,13.566,13.562v145.8Z"/><rect class="c" x="102.024" y="236.335" width="43.622" height="14.905"/><rect class="c" x="163.639" y="236.335" width="43.622" height="14.905"/><rect class="c" x="225.249" y="236.335" width="43.627" height="14.905"/><rect class="c" x="286.86" y="236.335" width="43.622" height="14.905"/><path class="c" d="M145.3,218.328a6.7,6.7,0,0,1-6.7,6.7H108.366a6.7,6.7,0,0,1-6.7-6.7V198.744a6.694,6.694,0,0,1,6.7-6.69H138.6a6.691,6.691,0,0,1,6.7,6.69v19.584Z"/></g></svg>